<svg width="24" height="24" viewBox="0 0 24 24" fill="none" xmlns="http://www.w3.org/2000/svg">
  <defs>
    <linearGradient id="solution-bg" x1="3" y1="3" x2="21" y2="21" gradientUnits="userSpaceOnUse">
      <stop stop-color="#22D3EE"/>
      <stop offset="0.5" stop-color="#3B82F6"/>
      <stop offset="1" stop-color="#8B5CF6"/>
    </linearGradient>
    <linearGradient id="package-accent" x1="13" y1="12" x2="21" y2="20" gradientUnits="userSpaceOnUse">
      <stop stop-color="#FACC15"/>
      <stop offset="1" stop-color="#22C55E"/>
    </linearGradient>
  </defs>
  <rect x="3" y="3" width="18" height="18" rx="4" fill="url(#solution-bg)"/>
  <path d="M7.4 7H13.2L16.2 10V17H7.4V7Z" fill="#111827" fill-opacity="0.48"/>
  <path d="M13.2 7V10H16.2" stroke="#E0F2FE" stroke-width="1.2" stroke-linecap="round" stroke-linejoin="round"/>
  <path d="M9.1 11.8H12.4M9.1 14.3H14.5" stroke="#E0F2FE" stroke-width="1.35" stroke-linecap="round"/>
  <path d="M5.8 8.5H4.9C4.4 8.5 4 8.9 4 9.4V18.2C4 18.7 4.4 19.1 4.9 19.1H13.8C14.3 19.1 14.7 18.7 14.7 18.2V18" stroke="#DFF7FF" stroke-opacity="0.8" stroke-width="1.2" stroke-linecap="round"/>
  <path d="M16.2 12.7L19.7 14.7V18.7L16.2 20.7L12.7 18.7V14.7L16.2 12.7Z" fill="url(#package-accent)" stroke="#F8FAFC" stroke-width="0.8" stroke-linejoin="round"/>
  <path d="M12.9 14.8L16.2 16.7M16.2 16.7L19.5 14.8M16.2 16.7V20.4" stroke="#064E3B" stroke-width="0.8" stroke-linecap="round" stroke-linejoin="round"/>
</svg>
